<svg
            width="125"
            height="16"
            viewBox="0 0 119 18"
            fill="none"
            xmlns="http://www.w3.org/2000/svg"
        >
            <path
                d="M11.7953 11.9711L5.89766 6.03437L11.7953 0.0976562H5.89766L0 6.03437L2.94883 9.03607L5.89766 11.9711L8.84649 14.9061L11.7953 11.9711Z"
                fill="white"
            />
            <path
                d="M15.991 9.03437L13.0422 6.03266L10.0934 3.09766L7.21006 6.03266L13.0422 11.9694L7.14453 17.9061H13.0422L15.991 14.9711L18.9399 11.9694L15.991 9.03437Z"
                fill="white"
            />
            <path
                d="M26.2775 6.03513C25.4256 6.03513 24.7048 6.30195 24.1805 6.90229C23.6563 7.50263 23.3942 8.30309 23.3942 9.37036C23.3942 10.4376 23.6563 11.2381 24.115 11.8384C24.6392 12.4388 25.2945 12.7056 26.2119 12.7056C26.8017 12.7056 27.3915 12.5722 28.1123 12.3721V13.2392C27.5225 13.4393 26.8672 13.5727 26.0809 13.5727C24.9014 13.5727 23.9839 13.2392 23.3286 12.5055C22.6734 11.7717 22.3457 10.7045 22.3457 9.37036C22.3457 8.5032 22.4768 7.76945 22.8044 7.16911C23.1321 6.56877 23.5908 6.03513 24.115 5.70161C24.6392 5.36808 25.3601 5.16797 26.2119 5.16797C27.0638 5.16797 27.7847 5.30138 28.44 5.6349L28.0468 6.43536C27.5225 6.23524 26.9328 6.03513 26.2775 6.03513Z"
                fill="white"
            />
            <path
                d="M34.4707 11.3051C34.4707 12.0388 34.2086 12.5725 33.6843 12.9727C33.1601 13.3729 32.5048 13.573 31.5874 13.573C30.6044 13.573 29.8836 13.4396 29.3594 13.1728V12.239C29.687 12.3724 30.0802 12.5058 30.4078 12.5725C30.7355 12.6392 31.1942 12.7059 31.5874 12.7059C32.2427 12.7059 32.7014 12.5725 32.9635 12.3724C33.2911 12.1055 33.4222 11.772 33.4222 11.3718C33.4222 11.105 33.3567 10.8382 33.2256 10.7047C33.0946 10.5046 32.898 10.3712 32.6359 10.1711C32.3737 10.0377 31.9806 9.83759 31.4563 9.63748C30.7355 9.37066 30.1457 9.03713 29.8836 8.63691C29.556 8.23668 29.4249 7.76975 29.4249 7.16941C29.4249 6.56906 29.687 6.03543 30.1457 5.6352C30.6044 5.23497 31.2597 5.10156 31.9806 5.10156C32.7669 5.10156 33.4877 5.23497 34.2086 5.56849L33.9464 6.36895C33.2911 6.10213 32.6359 5.96872 31.9806 5.96872C31.4563 5.96872 31.1287 6.10213 30.801 6.30225C30.5389 6.50236 30.4078 6.83588 30.4078 7.23611C30.4078 7.50293 30.4734 7.76975 30.5389 7.90316C30.67 8.10327 30.801 8.23668 31.0631 8.37009C31.3253 8.5035 31.6529 8.70361 32.1771 8.90373C33.029 9.23725 33.6188 9.57077 33.9464 9.90429C34.3396 10.3045 34.4707 10.7715 34.4707 11.3051Z"
                fill="white"
            />
            <path
                d="M40.6972 11.3051C40.6972 12.0388 40.4351 12.5725 39.9109 12.9727C39.3867 13.3729 38.7314 13.573 37.8139 13.573C36.831 13.573 36.1102 13.4396 35.5859 13.1728V12.239C35.9136 12.3724 36.3068 12.5058 36.6344 12.5725C36.9621 12.6392 37.4208 12.7059 37.8139 12.7059C38.4692 12.7059 38.9279 12.5725 39.1901 12.3724C39.5177 12.1055 39.6488 11.772 39.6488 11.3718C39.6488 11.105 39.5832 10.8382 39.4522 10.7047C39.3211 10.5046 39.1245 10.3712 38.8624 10.1711C38.6003 10.0377 38.2071 9.83759 37.6829 9.63748C36.9621 9.37066 36.3723 9.03713 36.1102 8.63691C35.7825 8.23668 35.6515 7.76975 35.6515 7.16941C35.6515 6.56906 35.9136 6.03543 36.3723 5.6352C36.831 5.23497 37.4863 5.10156 38.2071 5.10156C38.9935 5.10156 39.7143 5.23497 40.4351 5.56849L40.173 6.36895C39.5177 6.10213 38.8624 5.96872 38.2071 5.96872C37.6829 5.96872 37.3552 6.10213 37.0276 6.30225C36.7655 6.50236 36.6344 6.83588 36.6344 7.23611C36.6344 7.50293 36.6999 7.76975 36.7655 7.90316C36.8965 8.10327 37.0276 8.23668 37.2897 8.37009C37.5518 8.5035 37.8795 8.70361 38.4037 8.90373C39.2556 9.23725 39.8454 9.57077 40.173 9.90429C40.5007 10.3045 40.6972 10.7715 40.6972 11.3051Z"
                fill="white"
            />
            <path
                d="M48.8865 9.23635C48.8865 10.5704 48.4933 11.6377 47.7725 12.3715C47.0516 13.1052 46.0032 13.5054 44.627 13.5054H42.0059V5.30078H44.7581C46.0687 5.30078 47.0516 5.6343 47.7725 6.30135C48.4933 6.9684 48.8865 7.96897 48.8865 9.23635ZM46.6585 9.30306C46.6585 8.56931 46.5274 7.96897 46.1998 7.63544C45.9376 7.30192 45.4789 7.10181 44.8892 7.10181H44.2339V11.7044H44.6926C45.3479 11.7044 45.8066 11.5043 46.1342 11.1041C46.5274 10.7039 46.6585 10.1035 46.6585 9.30306Z"
                fill="white"
            />
            <path
                d="M53.212 13.635C52.1636 13.635 51.3772 13.3682 50.7874 12.7678C50.1977 12.2342 49.9355 11.4338 49.9355 10.3665C49.9355 9.29921 50.1977 8.49875 50.7219 7.89841C51.2461 7.29807 52.0325 7.03125 53.0154 7.03125C53.9329 7.03125 54.6537 7.29807 55.1779 7.765C55.7021 8.23193 55.9643 8.96568 55.9643 9.89955V10.9001H52.098C52.098 11.2336 52.2291 11.5005 52.4912 11.7673C52.7533 11.9674 53.081 12.1008 53.4741 12.1008C53.8673 12.1008 54.195 12.0341 54.5226 11.9674C54.8503 11.9007 55.1779 11.7673 55.5711 11.5672V13.1681C55.2434 13.3682 54.9158 13.4349 54.5226 13.5016C54.1294 13.5683 53.7363 13.635 53.212 13.635ZM53.081 8.56546C52.8188 8.56546 52.6223 8.63216 52.4257 8.83227C52.2291 8.96568 52.1636 9.2325 52.098 9.56602H53.9328C53.9328 9.2325 53.8673 9.03239 53.6707 8.83227C53.6052 8.63216 53.4086 8.56546 53.081 8.56546Z"
                fill="white"
            />
            <path
                d="M61.9918 11.5744C61.9918 12.2414 61.7952 12.7751 61.3365 13.1086C60.8778 13.4421 60.2225 13.6422 59.3706 13.6422C58.9119 13.6422 58.5187 13.6422 58.1911 13.5755C57.8634 13.5088 57.4702 13.4421 57.1426 13.3087V11.5744C57.4702 11.7078 57.8634 11.8412 58.2566 11.9746C58.6498 12.0413 58.9774 12.108 59.3051 12.108C59.7638 12.108 60.0259 11.9746 60.0259 11.7745C60.0259 11.6411 59.9604 11.5744 59.8293 11.5077C59.6982 11.441 59.3051 11.2409 58.7153 10.974C58.1255 10.7072 57.7323 10.4404 57.5358 10.1736C57.3392 9.84006 57.2081 9.50654 57.2081 9.0396C57.2081 8.43926 57.4047 7.97233 57.8634 7.63881C58.3221 7.30528 58.9119 7.17188 59.7638 7.17188C60.1569 7.17188 60.5501 7.23858 60.9433 7.30528C61.3365 7.37199 61.6641 7.5054 62.0573 7.70551L61.4675 9.10631C61.2054 8.9729 60.8778 8.83949 60.5501 8.77279C60.2225 8.70608 59.9604 8.63938 59.7638 8.63938C59.4361 8.63938 59.2395 8.70608 59.2395 8.90619C59.2395 9.0396 59.3051 9.10631 59.4361 9.17301C59.5672 9.23972 59.8948 9.37313 60.4846 9.63995C60.9433 9.84006 61.2709 9.97347 61.4675 10.1736C61.6641 10.3737 61.8607 10.5738 61.9262 10.7739C61.9262 10.9073 61.9918 11.2409 61.9918 11.5744Z"
                fill="white"
            />
            <path
                d="M63.1738 5.56698C63.1738 5.23345 63.2394 4.96663 63.4359 4.83322C63.6325 4.69982 63.8947 4.56641 64.2878 4.56641C64.681 4.56641 65.0087 4.63311 65.1397 4.83322C65.3363 4.96663 65.4018 5.23345 65.4018 5.56698C65.4018 6.23402 65.0087 6.50084 64.2223 6.50084C63.5015 6.56754 63.1738 6.23402 63.1738 5.56698ZM65.3363 13.5048H63.1738V7.16789H65.3363V13.5048Z"
                fill="white"
            />
            <path
                d="M72.7374 7.16466V8.23193L71.8855 8.56546C72.0166 8.76557 72.0821 9.03239 72.0821 9.29921C72.0821 9.96625 71.82 10.4999 71.3613 10.9001C70.9026 11.3003 70.1818 11.4338 69.2644 11.4338C69.0022 11.4338 68.8712 11.4338 68.7401 11.367C68.6746 11.4338 68.6746 11.5672 68.6746 11.6339C68.6746 11.7673 68.7401 11.834 68.9367 11.9007C69.1333 11.9674 69.3299 11.9674 69.592 11.9674H70.6405C72.0166 11.9674 72.7374 12.5677 72.7374 13.7684C72.7374 14.5689 72.4098 15.1692 71.7545 15.5694C71.0992 15.9697 70.1818 16.2365 69.0022 16.2365C68.1504 16.2365 67.4295 16.1031 66.9708 15.7696C66.5121 15.5027 66.25 15.0358 66.25 14.5022C66.25 13.7684 66.7087 13.2348 67.6261 13.0347C67.4295 12.968 67.2985 12.8345 67.1019 12.6344C66.9708 12.4343 66.9053 12.3009 66.9053 12.1008C66.9053 11.9007 66.9708 11.7006 67.0364 11.5672C67.1674 11.4338 67.364 11.2336 67.6917 11.0335C67.364 10.9001 67.1019 10.6333 66.9053 10.3665C66.7087 10.033 66.6432 9.69943 66.6432 9.2325C66.6432 8.56546 66.9053 8.03182 67.364 7.63159C67.8227 7.23136 68.478 7.03125 69.3299 7.03125C69.4609 7.03125 69.6575 7.03125 69.9197 7.09795C70.1818 7.09795 70.3784 7.16466 70.5094 7.16466H72.7374ZM68.0193 14.3021C68.0193 14.5022 68.0848 14.6356 68.2814 14.769C68.478 14.9024 68.7401 14.9024 69.0678 14.9024C69.592 14.9024 69.9852 14.8357 70.3128 14.7023C70.6405 14.5689 70.7715 14.3688 70.7715 14.1686C70.7715 13.9685 70.706 13.9018 70.5094 13.8351C70.3128 13.7684 70.0507 13.7017 69.6575 13.7017H68.8057C68.5435 13.7017 68.4125 13.7684 68.2159 13.8351C68.0848 13.9685 68.0193 14.1019 68.0193 14.3021ZM68.6746 9.2325C68.6746 9.89955 68.8712 10.2331 69.3299 10.2331C69.5265 10.2331 69.7231 10.1664 69.7886 9.96625C69.9197 9.83284 69.9852 9.56602 69.9852 9.2325C69.9852 8.56546 69.7886 8.23193 69.3299 8.23193C68.9367 8.23193 68.6746 8.56546 68.6746 9.2325Z"
                fill="white"
            />
            <path
                d="M77.5871 13.5088V10.0402C77.5871 9.63995 77.5216 9.30642 77.3906 9.10631C77.2595 8.90619 77.0629 8.77279 76.8008 8.77279C76.4076 8.77279 76.1455 8.90619 76.0144 9.23972C75.8834 9.50654 75.7523 10.0402 75.7523 10.7739V13.5755H73.5898V7.23858H75.2281L75.4902 8.03903H75.6213C75.8178 7.77222 76.08 7.5054 76.4076 7.37199C76.7353 7.23858 77.1284 7.17188 77.5216 7.17188C78.2424 7.17188 78.7667 7.37199 79.1599 7.77222C79.553 8.17244 79.7496 8.77279 79.7496 9.50654V13.6422H77.5871V13.5088Z"
                fill="white"
            />
            <path
                d="M86.6314 13.5054L85.6484 10.904H82.4375L81.4545 13.5054H80.5371L83.7481 5.30078H84.5344L87.6798 13.5054H86.6314ZM85.3208 10.0368L84.4034 7.50203C84.2723 7.16851 84.1412 6.76828 84.0102 6.30135C83.9446 6.63487 83.8136 7.0351 83.6825 7.50203L82.7651 10.0368H85.3208Z"
                fill="white"
            />
            <path
                d="M93.5107 13.5076L92.3967 9.90557C92.3312 9.70546 92.2001 9.17182 92.0036 8.43807H91.938C91.807 9.10511 91.6759 9.57205 91.5449 9.97227L90.4309 13.5743H89.3824L87.7441 7.4375H88.7271C89.1203 8.97171 89.3824 10.1724 89.6445 10.9728C89.8411 11.7733 89.9721 12.3069 89.9721 12.5738H90.0377C90.1032 12.3736 90.1687 12.1068 90.2343 11.7733C90.2998 11.4398 90.4309 11.173 90.4964 10.9728L91.6104 7.4375H92.5933L93.6418 10.9728C93.8384 11.6399 93.9694 12.1735 94.035 12.5738H94.1005C94.1005 12.4403 94.166 12.2402 94.2316 11.9734C94.2971 11.7066 94.6903 10.1724 95.3456 7.4375H96.263L94.6247 13.5743H93.5107V13.5076Z"
                fill="white"
            />
            <path
                d="M101.044 13.5085L100.847 12.6414H100.781C100.454 13.0416 100.192 13.3084 99.864 13.4418C99.5363 13.5752 99.2087 13.6419 98.75 13.6419C98.1602 13.6419 97.7015 13.5085 97.3739 13.175C97.0462 12.8415 96.8496 12.4412 96.8496 11.8409C96.8496 10.5735 97.8326 9.97317 99.7984 9.90647L100.847 9.83976V9.43953C100.847 8.9726 100.716 8.57237 100.519 8.37226C100.323 8.17215 99.995 8.03874 99.5363 8.03874C99.0121 8.03874 98.4879 8.17215 97.8326 8.50567L97.5704 7.77192C97.8981 7.63851 98.1602 7.5051 98.5534 7.37169C98.881 7.30499 99.2742 7.23828 99.6019 7.23828C100.323 7.23828 100.847 7.37169 101.175 7.70521C101.502 8.03874 101.699 8.57237 101.699 9.23942V13.4418H101.044V13.5085ZM98.9466 12.8415C99.5363 12.8415 99.9295 12.7081 100.257 12.3745C100.585 12.041 100.716 11.6408 100.716 11.0404V10.5068L99.7984 10.5735C99.0776 10.5735 98.5534 10.7069 98.2257 10.907C97.8981 11.1071 97.767 11.4407 97.767 11.8409C97.767 12.1744 97.8981 12.4412 98.0947 12.5746C98.3568 12.7748 98.6189 12.8415 98.9466 12.8415Z"
                fill="white"
            />
            <path
                d="M106.354 7.23828C106.616 7.23828 106.878 7.23828 107.075 7.30499L106.944 8.17215C106.681 8.10544 106.485 8.10544 106.288 8.10544C105.83 8.10544 105.371 8.30555 105.043 8.70578C104.716 9.10601 104.519 9.63965 104.519 10.24V13.5085H103.602V7.37169H104.322L104.453 8.50567H104.519C104.716 8.10544 105.043 7.77192 105.305 7.5718C105.633 7.37169 105.961 7.23828 106.354 7.23828Z"
                fill="white"
            />
            <path
                d="M112.319 12.7074C111.861 13.3077 111.205 13.6412 110.353 13.6412C109.567 13.6412 108.977 13.3744 108.519 12.8408C108.06 12.3071 107.863 11.5067 107.863 10.5061C107.863 9.50556 108.06 8.7051 108.519 8.17147C108.977 7.63783 109.567 7.30431 110.353 7.30431C111.14 7.30431 111.795 7.63783 112.254 8.23817H112.319L112.254 7.77124V7.37101V4.76953H113.171V13.5078H112.45L112.319 12.7074ZM110.484 12.8408C111.14 12.8408 111.533 12.6407 111.861 12.3071C112.123 11.9736 112.254 11.3733 112.254 10.6395V10.4394C112.254 9.57226 112.123 8.97192 111.795 8.57169C111.533 8.17147 111.074 8.03806 110.419 8.03806C109.895 8.03806 109.502 8.23817 109.174 8.7051C108.912 9.10533 108.715 9.70567 108.715 10.5061C108.715 11.3066 108.846 11.9069 109.108 12.3071C109.502 12.6407 109.895 12.8408 110.484 12.8408Z"
                fill="white"
            />
            <path
                d="M119.001 11.8409C119.001 12.4412 118.804 12.8415 118.345 13.175C117.952 13.5085 117.362 13.6419 116.576 13.6419C115.79 13.6419 115.134 13.5085 114.676 13.2417V12.3745C114.938 12.5079 115.266 12.6414 115.593 12.7081C115.921 12.7748 116.248 12.8415 116.576 12.8415C117.035 12.8415 117.428 12.7748 117.69 12.6414C117.952 12.5079 118.083 12.2411 118.083 11.9076C118.083 11.6408 117.952 11.4407 117.756 11.3073C117.559 11.1071 117.166 10.907 116.576 10.7069C115.986 10.5068 115.593 10.3067 115.397 10.1733C115.134 10.0399 115.003 9.83976 114.872 9.63965C114.741 9.43953 114.676 9.17271 114.676 8.9059C114.676 8.43896 114.872 8.03874 115.266 7.70521C115.659 7.37169 116.183 7.23828 116.904 7.23828C117.559 7.23828 118.214 7.37169 118.804 7.63851L118.477 8.37226C117.887 8.10544 117.297 7.97203 116.838 7.97203C116.38 7.97203 116.052 8.03874 115.855 8.17215C115.659 8.30555 115.528 8.50567 115.528 8.77249C115.528 8.9059 115.593 9.10601 115.659 9.17271C115.724 9.30612 115.855 9.37283 116.052 9.50624C116.248 9.63965 116.576 9.77306 117.1 9.97317C117.821 10.24 118.28 10.5068 118.542 10.7736C118.87 11.1071 119.001 11.4407 119.001 11.8409Z"
                fill="white"
            />
        </svg>