<svg
            width="90"
            height="16"
            viewBox="0 0 90 15"
            fill="none"
            xmlns="http://www.w3.org/2000/svg"
        >
            <path
                d="M0.38297 6.70298C0.702112 5.04344 2.17017 3.89453 4.21267 3.89453C6.57433 3.89453 8.42535 4.91579 8.42535 8.10721V14.0432H6.38284L6.12753 12.7667C5.42541 13.6603 4.46799 14.2347 3.06376 14.2347C1.3404 14.2347 0 13.1496 0 11.171C0 9.19229 1.7872 7.91572 4.2765 7.91572H5.93604V7.46892C5.93604 6.32001 5.10627 6.00087 4.14885 6.00087C3.44673 6.00087 2.74462 6.25618 2.42548 7.14978L0.38297 6.70298ZM3.63822 12.1284C4.78713 12.1284 5.93604 11.3625 5.93604 10.0859V9.8944H4.34033C3.25525 9.83057 2.61696 10.2774 2.61696 11.171C2.61696 11.6178 2.99993 12.1284 3.63822 12.1284Z"
                fill="white"
            />
            <path
                d="M48.5099 6.70298C48.8291 5.04344 50.2971 3.89453 52.3396 3.89453C54.7013 3.89453 56.5523 4.91579 56.5523 8.10721V14.0432H54.5098L54.2545 12.7667C53.5524 13.6603 52.5949 14.2347 51.1907 14.2347C49.4673 14.2347 48.127 13.1496 48.127 11.171C48.127 9.19229 49.9141 7.91572 52.4035 7.91572H54.063V7.46892C54.063 6.32001 53.2332 6.00087 52.2758 6.00087C51.5737 6.00087 50.8716 6.25618 50.5524 7.14978L48.5099 6.70298ZM51.7652 12.1284C52.9141 12.1284 54.063 11.3625 54.063 10.0859V9.8944H52.4035C51.3184 9.8944 50.6801 10.2774 50.6801 11.171C50.7439 11.6178 51.1269 12.1284 51.7652 12.1284Z"
                fill="white"
            />
            <path
                d="M58.7852 14.1071V4.02219H61.2745V5.68173C61.9766 4.46899 63.1255 3.89453 64.2106 3.89453C64.6574 3.89453 65.0403 3.95836 65.4233 4.08602L64.9765 6.38384C64.6574 6.19235 64.3382 6.0647 63.9553 6.0647C62.4872 6.0647 61.2745 7.27744 61.2745 10.4689V14.0432L58.7852 14.1071Z"
                fill="white"
            />
            <path
                d="M70.7193 3.89353C71.7406 3.89353 72.698 4.40416 73.1448 4.97862V0H75.6341V14.1061H73.1448V13.0848C72.8257 13.5954 71.9321 14.2976 70.7193 14.2976C67.7194 14.2976 66.1875 12.1912 66.1875 9.12746C66.1875 6.0637 67.7194 3.89353 70.7193 3.89353ZM71.1023 12.1274C72.3789 12.1274 73.4001 11.0423 73.4001 9.06363C73.4001 7.08495 72.3789 5.99987 71.1023 5.99987C69.8257 5.99987 68.8045 7.08495 68.8045 9.06363C68.8045 11.0423 69.8257 12.1274 71.1023 12.1274Z"
                fill="white"
            />
            <path
                d="M84.57 5.48899L83.1019 6.82939C82.6551 6.1911 81.953 5.93579 81.4424 5.93579C80.9317 5.93579 80.4849 6.25493 80.4849 6.76556C80.4849 7.21236 80.8679 7.5315 81.4424 7.72299C82.8466 8.23361 85.0806 8.68041 85.0806 10.7867C85.0806 12.6378 83.6764 14.1058 81.5062 14.1058C79.3999 14.1058 77.9956 12.6378 77.5488 11.425L79.5275 10.34C79.9105 11.2974 80.5488 11.9995 81.57 11.9995C82.336 11.9995 82.8466 11.6165 82.8466 10.9144C82.8466 10.0846 81.57 9.89315 80.3573 9.38252C79.2722 8.93573 78.3148 8.23361 78.3148 6.70173C78.3148 5.16985 79.5913 3.76562 81.5062 3.76562C82.7828 3.82945 83.9955 4.53157 84.57 5.48899Z"
                fill="white"
            />
            <path
                d="M33.1265 4.02344L31.3393 10.9807L29.6159 4.02344H27.3181L25.6585 10.9807L24.2543 6.95954L24.0628 7.40634L23.2969 10.0233L24.5734 14.1083H26.7436L28.467 7.59783L30.1903 14.1083H32.4243L35.6158 4.02344H33.1265Z"
                fill="white"
            />
            <path
                d="M45.0614 4.02344L43.2742 10.9807L41.5508 4.02344H39.253L37.5935 10.9807L36.1892 6.95954L35.9977 7.40634L35.168 10.0233L36.5084 14.1083H38.6785L40.4019 7.59783L42.1253 14.1083H44.2954L47.5507 4.02344H45.0614Z"
                fill="white"
            />
            <path
                d="M23.6816 4.02344L20.4902 14.0445H18.32L16.5967 7.59783L14.8733 14.1083H12.7031L9.51172 4.08727H12.001L13.7882 10.9807L15.5116 4.08727H17.8094L19.5328 10.9807L21.32 4.08727L23.6816 4.02344Z"
                fill="white"
            />
            <path
                d="M88.3412 10.8516C89.2986 10.8516 90.0007 11.5537 90.0007 12.5111C90.0007 13.4685 89.2986 14.1706 88.3412 14.1706C87.3837 14.1706 86.6816 13.4685 86.6816 12.5111C86.6816 11.5537 87.3837 10.8516 88.3412 10.8516Z"
                fill="white"
            />
        </svg>