        <svg version="1.1" xmlns="http://www.w3.org/2000/svg" width="968" height="384">
            <path
                d="M0 0 C1.07253402 -0.00205263 2.14506804 -0.00410527 3.25010309 -0.0062201 C6.84461521 -0.01187526 10.43908884 -0.01043468 14.03360462 -0.00901413 C16.63669196 -0.01159863 19.2397789 -0.01461202 21.84286529 -0.01801753 C28.24725787 -0.02557978 34.65164211 -0.02778969 41.05603869 -0.02834659 C48.72964028 -0.029262 56.40323421 -0.0359349 64.07683249 -0.04269341 C82.62358421 -0.05873882 101.1703351 -0.06465538 119.71709251 -0.06944216 C128.49644747 -0.07177993 137.27580178 -0.07538282 146.05515623 -0.07913754 C176.12556857 -0.09197278 206.19598055 -0.10269117 236.26639557 -0.10614014 C238.15341321 -0.10636177 240.04043086 -0.10658355 241.9274485 -0.10680549 C243.81895261 -0.10702613 245.71045673 -0.10724661 247.60196084 -0.10746694 C251.39646161 -0.10790948 255.19096237 -0.1083566 258.98546314 -0.10880661 C259.92627589 -0.108916 260.86708864 -0.10902539 261.83641087 -0.1091381 C292.32414461 -0.11276659 322.81185455 -0.12867893 353.29957919 -0.15199697 C385.55520488 -0.17662192 417.81081697 -0.19031425 450.06645232 -0.19150805 C453.61102283 -0.1916795 457.15559334 -0.19189492 460.70016384 -0.19214249 C461.57289629 -0.19219826 462.44562873 -0.19225402 463.34480761 -0.19231148 C477.35907316 -0.19345972 491.37331419 -0.20446246 505.38757147 -0.21902954 C519.489154 -0.23343328 533.59070526 -0.23660974 547.69229313 -0.22858956 C556.05721549 -0.22415127 564.42203655 -0.2279213 572.78694549 -0.24382807 C578.39052719 -0.25364388 583.99403863 -0.25233753 589.59761982 -0.24239184 C592.77999325 -0.2370468 595.96213757 -0.23783804 599.14450165 -0.24890056 C647.99208434 -0.40783609 692.67069043 12.92847044 728.00963306 48.00252151 C760.21549684 81.76599464 771.21303085 125.79164983 770.27562428 171.31764603 C769.13144021 213.29600869 750.81529369 252.66946062 720.79869556 281.70955276 C682.51138573 317.58198648 632.61194105 324.4885401 582.2619524 324.38539505 C579.7626882 324.387706 577.26342467 324.39088674 574.76416254 324.39484954 C569.38023083 324.40140352 563.99635421 324.40190328 558.61242199 324.39675522 C550.60568763 324.38912046 542.5989866 324.39309351 534.59225239 324.39917183 C520.28368736 324.40965161 505.9751403 324.40881128 491.6665736 324.40301401 C479.14426204 324.39796589 466.62195703 324.39667738 454.09964466 324.3990593 C453.26625147 324.39921207 452.43285828 324.39936484 451.57421074 324.39952224 C448.1904715 324.400145 444.80673226 324.40078181 441.42299302 324.40144176 C409.73613651 324.40754805 378.04929137 324.40203147 346.36243661 324.39124797 C318.26322126 324.38175807 290.16402404 324.38260738 262.06480885 324.39216995 C230.43274263 324.40289905 198.80068646 324.40711485 167.16861868 324.40094543 C163.79134878 324.40030407 160.41407887 324.39967839 157.03680897 324.3990593 C156.20535101 324.39890114 155.37389305 324.39874299 154.5172394 324.39858004 C142.00845017 324.39631327 129.49966823 324.39895033 116.99088001 324.4040184 C102.75564816 324.40975751 88.52043694 324.40826361 74.28520763 324.39745691 C66.33633083 324.39162017 58.38749881 324.39114864 50.43862325 324.39874926 C44.47807416 324.40381598 38.51758191 324.39825109 32.55703622 324.38880011 C30.16502682 324.38658834 27.77301134 324.38765152 25.38100594 324.39255169 C-9.44785661 324.45835951 -42.23470698 321.27056166 -73.93177319 306.13142776 C-74.55938549 305.83397659 -75.1869978 305.53652542 -75.83362865 305.23006058 C-110.6316911 288.4697337 -136.51098757 257.66249864 -149.61536694 221.61580276 C-155.05248248 205.82457139 -158.48685287 188.84495613 -158.93177319 172.13142776 C-158.95223705 171.41341995 -158.97270092 170.69541214 -158.9937849 169.95564651 C-159.77594645 138.3589056 -154.12637328 108.01986586 -138.93177319 80.13142776 C-138.36587475 79.07310745 -137.79997631 78.01478714 -137.21692944 76.92439651 C-124.71747684 54.4842028 -106.025485 36.03961832 -83.93177319 23.13142776 C-82.90020092 22.52234573 -82.90020092 22.52234573 -81.84778881 21.90095901 C-57.08216448 7.48944978 -28.63999292 -0.05141708 0 0 Z M-90.93177319 62.13142776 C-91.752906 62.87779495 -92.57403881 63.62416214 -93.42005444 64.39314651 C-115.97744877 85.61744445 -128.90110235 119.83383724 -130.05604076 150.42268753 C-130.92552802 190.84173136 -123.54631738 228.39530535 -95.17396069 258.86653519 C-69.75582376 285.26536489 -34.5107053 297.3532316 1.56054266 298.18918751 C8.9629473 298.28713747 16.3659065 298.27033555 23.7688036 298.26514053 C26.29427243 298.26701025 28.81974097 298.26931159 31.34520906 298.27200586 C36.82342982 298.27683771 42.30163795 298.2785808 47.7798605 298.27754974 C55.92674018 298.27602019 64.07361015 298.28019679 72.22048795 298.28542437 C87.62068679 298.29508049 103.0208823 298.29790797 118.42108382 298.29848143 C130.31753336 298.29894152 142.2139816 298.30100271 154.11043072 298.30418205 C157.53867783 298.30507964 160.96692494 298.30596946 164.39517206 298.30685693 C165.24752243 298.30707798 166.0998728 298.30729903 166.97805196 298.30752677 C190.94387348 298.31367851 214.90969455 298.31762759 238.87551689 298.31718349 C239.77854765 298.31716792 240.68157842 298.31715234 241.61197375 298.31713629 C246.18857846 298.31705318 250.76518317 298.31695414 255.34178788 298.31685158 C256.25066553 298.31683163 257.15954318 298.31681169 258.09596258 298.31679114 C259.93393409 298.3167507 261.7719056 298.3167089 263.60987711 298.31666575 C292.19715437 298.31605318 320.78441975 298.32355722 349.37169361 298.33723831 C381.51378696 298.35261442 413.6558725 298.36120361 445.79796976 298.36027509 C449.22841736 298.36020046 452.65886495 298.36015175 456.08931255 298.36012077 C457.35623997 298.36010329 457.35623997 298.36010329 458.64876189 298.36008546 C472.21315689 298.36005474 485.77754155 298.36642779 499.34193349 298.37505304 C512.98594456 298.38354918 526.62994059 298.38450415 540.27395285 298.37794372 C548.36823716 298.37426111 556.46247559 298.37604166 564.55675499 298.38588606 C570.61716161 298.39263083 576.67751482 298.38879776 582.73792212 298.38101283 C585.17730826 298.37948243 587.61669943 298.38127655 590.05607963 298.38687291 C607.70285981 298.42465222 625.61782739 298.31305798 642.81822681 293.88142776 C643.68471851 293.664543 644.55121021 293.44765823 645.44395924 293.2242012 C678.50856291 284.66351015 706.04452202 264.68839624 723.44322681 235.16658401 C743.34795931 200.07293258 746.91274392 156.97936354 736.61900806 118.25252151 C727.38570683 86.26202765 707.20721149 59.47104534 678.06822681 43.13142776 C657.53795511 31.83036077 634.67125141 25.95810932 611.24832821 26 C610.17574965 25.99794737 609.10317109 25.99589473 607.99809015 25.9937799 C604.39744421 25.98811724 600.79683662 25.98956625 597.19618702 25.99098587 C594.59111197 25.98840181 591.98603731 25.98538854 589.38096321 25.98198247 C582.96790386 25.97441544 576.55485284 25.97221007 570.14178949 25.97165341 C562.45881277 25.97073848 554.77584373 25.96406706 547.09287032 25.95730659 C528.52381284 25.94125692 509.9547562 25.93534433 491.38569303 25.93055784 C482.59792851 25.9282207 473.81016464 25.9246179 465.02240062 25.92086246 C434.92991477 25.90802742 404.83742928 25.89730855 374.74494076 25.89385986 C372.85636617 25.89363823 370.96779159 25.89341645 369.07921701 25.89319451 C367.1861271 25.89297387 365.29303719 25.89275339 363.39994729 25.89253306 C359.60219932 25.89209052 355.80445135 25.8916434 352.00670338 25.89119339 C351.06508471 25.891084 350.12346603 25.89097461 349.15331346 25.8908619 C318.63093756 25.88723241 288.10858543 25.87131617 257.58621863 25.84800303 C225.30225033 25.82338954 193.01829561 25.8096863 160.73431766 25.80849195 C157.18811822 25.8083205 153.64191878 25.80810507 150.09571934 25.80785751 C149.2225707 25.80780174 148.34942206 25.80774598 147.44981438 25.80768852 C133.41703709 25.80653935 119.38428426 25.79552871 105.35151522 25.78097046 C91.23755757 25.76658156 77.12363116 25.76338196 63.00966819 25.77141044 C54.63280105 25.77585553 46.25603496 25.77205112 37.87918117 25.75617193 C31.61176108 25.74522576 25.34444429 25.75009811 19.07702611 25.7609438 C16.55071538 25.76289805 14.02439442 25.75983506 11.49809803 25.75109944 C-27.19874194 25.62581844 -62.30478378 34.71863366 -90.93177319 62.13142776 Z "
                fill="white"
                transform="translate(178.93177318572998,30.868572235107422)"
            />
            <path
                d="M0 0 C13.6125 -0.061875 27.225 -0.12375 41.25 -0.1875 C45.52614258 -0.21481201 49.80228516 -0.24212402 54.20800781 -0.27026367 C59.48583984 -0.28381348 59.48583984 -0.28381348 61.96746826 -0.28633118 C63.67696485 -0.29089613 65.38645262 -0.30135919 67.09588623 -0.31672668 C84.96015961 -0.46910095 100.28366618 1.83795938 113.921875 14.51953125 C123.10524143 25.48088028 124.97767994 38.16179898 124 52 C122.85824588 58.87749532 120.01018069 64.36544231 116 70 C115.443125 70.845625 114.88625 71.69125 114.3125 72.5625 C100.87521105 86.72612889 83.35619409 87.9870645 65 89 C65.87213135 89.86689453 66.7442627 90.73378906 67.64282227 91.62695312 C70.90877402 94.87466792 74.17130299 98.12580327 77.43286133 101.37792969 C78.83917075 102.77924133 80.24638022 104.17965036 81.65454102 105.57910156 C83.69009656 107.60239038 85.72228531 109.62901128 87.75390625 111.65625 C88.37399063 112.2711731 88.99407501 112.88609619 89.63294983 113.51965332 C93.35658496 117.24281977 96.85803185 121.0959584 100.30067444 125.07928467 C102.86748543 127.98050226 105.60351897 130.69028621 108.37109375 133.3984375 C109.53332703 134.54805183 110.69543297 135.69779491 111.85742188 136.84765625 C113.66182001 138.62704488 115.46781345 140.404762 117.27612305 142.18017578 C119.04125453 143.91529364 120.80026685 145.65642841 122.55859375 147.3984375 C123.10535263 147.93173676 123.65211151 148.46503601 124.21543884 149.01449585 C125.51528518 150.30552223 126.76321543 151.64844033 128 153 C128 153.66 128 154.32 128 155 C93.49557346 157.60043409 93.49557346 157.60043409 85.44921875 151.94140625 C82.18244854 148.92842586 79.56244222 145.54000156 77.16357422 141.80712891 C75.7145388 139.55665467 74.00723118 137.64502819 72.1875 135.6875 C71.68605469 135.09324219 71.18460938 134.49898437 70.66796875 133.88671875 C67.74374054 130.5789852 64.54575182 127.5391765 61.40625 124.4375 C58.75040247 121.74716094 56.29864568 118.93426475 53.84375 116.0625 C50.85016639 112.71374545 47.61629431 109.60882408 44.421875 106.453125 C41.7360364 103.73263042 39.22480637 100.90950652 36.765625 97.984375 C34.29770692 95.21069716 31.62525317 92.62525317 29 90 C28.67 111.45 28.34 132.9 28 155 C18.76 155 9.52 155 0 155 C0 103.85 0 52.7 0 0 Z M28 24 C28 37.53 28 51.06 28 65 C34.36841639 65.06916623 40.73551011 65.12881202 47.10400391 65.16479492 C49.26680945 65.17980768 51.42958493 65.20022416 53.59228516 65.22631836 C56.71524511 65.26303366 59.8377998 65.27980196 62.9609375 65.29296875 C63.91551849 65.30845261 64.87009949 65.32393646 65.85360718 65.33988953 C74.49427816 65.34201723 83.32855042 63.87722939 90 58 C93.81573151 52.96800407 94.65521989 47.90072675 94.37109375 41.67578125 C93.63176126 36.34480486 92.03060951 32.70645717 87.87109375 29.2109375 C82.54506041 25.50815979 78.55239303 23.86971033 72.04785156 23.88647461 C71.06713684 23.88655014 70.08642212 23.88662567 69.07598877 23.88670349 C68.02481873 23.89186478 66.97364868 23.89702606 65.890625 23.90234375 C64.80867859 23.9037587 63.72673218 23.90517365 62.61199951 23.90663147 C59.1579715 23.91222682 55.70400841 23.9247785 52.25 23.9375 C49.90755302 23.9425156 47.56510502 23.9470784 45.22265625 23.95117188 C39.48172572 23.96134362 33.74093551 23.98092008 28 24 Z "
                fill="white"
                transform="translate(694,115)"
            />
            <path
                d="M0 0 C1.60139285 0.00373645 3.202788 0.00658043 4.80418396 0.00857544 C8.99136823 0.01616221 13.17841076 0.03576733 17.36553955 0.0579834 C21.6492725 0.07854939 25.93302865 0.08760001 30.21679688 0.09765625 C38.60163436 0.11901858 46.98633002 0.15415951 55.37109375 0.1953125 C55.37109375 8.1153125 55.37109375 16.0353125 55.37109375 24.1953125 C53.38859619 24.2046582 51.40609863 24.21400391 49.36352539 24.22363281 C42.78557584 24.25927074 36.20796917 24.31313855 29.63025761 24.37921524 C25.64533495 24.41858786 21.66062988 24.45082594 17.67553711 24.46630859 C13.82379708 24.48154319 9.97265566 24.51610714 6.1211834 24.56362152 C4.65777247 24.57836573 3.19427605 24.58634949 1.73079109 24.58719635 C-7.57996062 24.59799465 -16.13430697 24.70071322 -23.06640625 31.6328125 C-26.59692816 37.42286844 -27.19073454 41.57613548 -25.62890625 48.1953125 C-24.20215452 50.57559541 -24.20215452 50.57559541 -22.62890625 52.1953125 C-22.62890625 52.8553125 -22.62890625 53.5153125 -22.62890625 54.1953125 C-11.06926556 58.88682227 0.58951819 61.65561766 12.79956055 63.97167969 C30.59781077 67.37595309 48.28015244 72.81587389 59.37109375 88.1953125 C65.6909033 98.18021536 66.94271081 110.07372256 64.71875 121.56640625 C61.54659861 133.12501795 55.35557735 142.1691088 45.19921875 148.5625 C32.70783292 155.46133727 19.23237903 155.62596703 5.37890625 155.48828125 C3.6949807 155.48267 2.01105017 155.47840716 0.32711792 155.47541809 C-4.0557055 155.4640894 -8.43821969 155.43472896 -12.82092285 155.40130615 C-17.31286438 155.37034345 -21.804857 155.35685739 -26.296875 155.34179688 C-35.07437488 155.30984473 -43.8515662 155.25717838 -52.62890625 155.1953125 C-52.62890625 146.9453125 -52.62890625 138.6953125 -52.62890625 130.1953125 C-49.36681274 130.17343872 -49.36681274 130.17343872 -46.03881836 130.15112305 C-38.83824962 130.10069384 -31.63789524 130.03408419 -24.43753719 129.95959759 C-20.07369282 129.91494793 -15.70994064 129.87568004 -11.34594727 129.84887695 C-7.13121708 129.82278984 -2.9168427 129.7823496 1.29766655 129.73212624 C2.90229287 129.71549398 4.50698068 129.70395708 6.11168098 129.69769859 C8.36657781 129.68801748 10.62057183 129.65991244 12.87524414 129.62768555 C14.15653702 129.61658249 15.4378299 129.60547943 16.75794983 129.59403992 C22.06073181 129.008853 25.90095625 127.36474005 30.12109375 124.0078125 C33.48044535 119.808623 35.51393414 116.12354056 35.24609375 110.6328125 C34.4015015 105.56525901 33.33566525 101.66431257 29.37109375 98.1953125 C20.4723183 92.30525987 9.94145983 90.85257673 -0.31640625 88.7578125 C-39.03589912 80.8492263 -39.03589912 80.8492263 -50.62890625 64.1953125 C-56.21636044 53.25744762 -57.34028914 41.42064928 -54.06640625 29.5703125 C-50.30876614 18.5864414 -43.59478171 10.19706726 -33.1484375 4.94921875 C-22.1552139 0.29627295 -11.71911337 -0.08075851 0 0 Z "
                fill="white"
                transform="translate(206.62890625,114.8046875)"
            />
            <path
                d="M0 0 C10.23 0 20.46 0 31 0 C36.62380959 13.49714302 36.62380959 13.49714302 38.40917969 18.50732422 C38.8149826 19.64080795 39.22078552 20.77429169 39.6388855 21.94212341 C40.06227203 23.13426956 40.48565857 24.32641571 40.921875 25.5546875 C41.38412131 26.84838928 41.84670579 28.14197027 42.30960083 29.43544006 C43.2874929 32.16921811 44.26376687 34.90356559 45.2387085 37.63839722 C47.79325743 44.80255735 50.36122063 51.96191401 52.9296875 59.12109375 C53.186469 59.83702509 53.4432505 60.55295643 53.70781326 61.29058266 C58.69713231 75.19744242 63.75744961 89.07725565 68.875 102.9375 C69.23702515 103.92111511 69.59905029 104.90473022 69.9720459 105.91815186 C70.97561628 108.64322432 71.98306799 111.36682208 72.9921875 114.08984375 C73.43269943 115.28662498 73.43269943 115.28662498 73.8821106 116.50758362 C74.98656025 120.01974712 74.98656025 120.01974712 77 123 C77.37012459 121.95480194 77.37012459 121.95480194 77.74772644 120.88848877 C99.82650159 58.5459627 99.82650159 58.5459627 109.97317505 30.58969116 C112.43207345 23.8142687 114.8728782 17.03238284 117.3125 10.25 C119.1378125 5.17625 119.1378125 5.17625 121 0 C131.23 0 141.46 0 152 0 C150.21207402 5.36377793 148.42616081 10.66184969 146.4609375 15.953125 C146.22352341 16.59316971 145.98610931 17.23321442 145.74150085 17.89265442 C144.95443235 20.01243058 144.16487966 22.13126986 143.375 24.25 C142.95466995 25.37944534 142.95466995 25.37944534 142.52584839 26.53170776 C129.91977672 60.40138219 117.04676877 94.17158537 104.22290039 127.95922852 C103.76491562 129.16601257 103.30693085 130.37279663 102.83506775 131.6161499 C101.97686469 133.87739454 101.11852637 136.13858784 100.26002502 138.39971924 C99.87402634 139.41676941 99.48802765 140.43381958 99.09033203 141.48168945 C98.75744171 142.35855911 98.42455139 143.23542877 98.08157349 144.13887024 C96.71399248 147.75658716 95.35799702 151.3786746 94 155 C82.12 155 70.24 155 58 155 C55.70225142 149.8300657 53.47386346 144.80744504 51.46875 139.546875 C50.99856445 138.31606201 50.52837891 137.08524902 50.04394531 135.81713867 C49.52918848 134.46146693 49.01454442 133.10575237 48.5 131.75 C47.94119382 130.28291591 47.38227023 128.81587653 46.82324219 127.34887695 C38.58409884 105.70562099 30.43408425 84.02836496 22.26586914 62.35827637 C19.04692825 53.81861554 15.82730547 45.27921371 12.6048584 36.74087524 C11.52910114 33.8896312 10.4544764 31.03796207 9.37988281 28.1862793 C8.72210989 26.44315711 8.06423658 24.7000728 7.40625 22.95703125 C7.10080261 22.14612534 6.79535522 21.33521942 6.48065186 20.4997406 C4.62243898 15.58427535 2.69515879 10.7068101 0.61132812 5.8815918 C0 4 0 4 0 0 Z "
                fill="white"
                transform="translate(504,115)"
            />
            <path
                d="M0 0 C9.57 0 19.14 0 29 0 C29 42.9 29 85.8 29 130 C53.09 130 77.18 130 102 130 C102 138.25 102 146.5 102 155 C68.34 155 34.68 155 0 155 C0 103.85 0 52.7 0 0 Z "
                fill="white"
                transform="translate(399,115)"
            />
            <path
                d="M0 0 C9.57 0 19.14 0 29 0 C29 51.15 29 102.3 29 155 C19.43 155 9.86 155 0 155 C0 103.85 0 52.7 0 0 Z "
                fill="white"
                transform="translate(315,115)"
            />
        </svg>