<svg
            width="171"
            height="32"
            viewBox="0 0 171 32"
            fill="none"
            xmlns="http://www.w3.org/2000/svg"
        >
            <g clip-path="url(#clip0_1756_33561)">
                <path
                    d="M27.8862 21.9379C28.036 21.3784 27.9597 20.7964 27.6715 20.2962L25.048 15.7514L27.6715 11.2066C27.9597 10.7079 28.036 10.1245 27.8862 9.56501C27.7365 9.00557 27.379 8.53936 26.8789 8.25115L13.0877 0.288911C12.055 -0.307269 10.7284 0.0473316 10.1322 1.08005L7.50734 5.62627H2.16292C1.5851 5.62627 1.04261 5.8509 0.632913 6.25918C0.224628 6.66746 0 7.21137 0 7.78919V23.7137C0 24.906 0.970557 25.8766 2.16292 25.8766H7.50734L10.1308 30.4214C10.419 30.9215 10.8852 31.2789 11.4447 31.4287C12.0041 31.5785 12.5862 31.5022 13.0863 31.214L26.8775 23.2517C27.3776 22.9635 27.7351 22.4973 27.8848 21.9379M7.50593 23.0624H2.81561V8.44188H7.50593V23.0624ZM12.2429 28.4492L9.90336 24.396L10.063 24.3014L22.5573 17.0794L22.83 17.547L24.9053 21.1411L12.2443 28.4506L12.2429 28.4492ZM10.3215 20.891V10.6119L19.2233 15.7514L10.3215 20.891ZM22.83 13.9587L22.5206 14.4037L9.9076 7.11248L10.1167 6.7381L12.2443 3.05365L12.3587 3.12005L24.9053 10.3632L22.83 13.9572V13.9587Z"
                    fill="white"
                />
                <path
                    d="M53.8046 7.77454V7.25748H49.1086L41.3046 14.1291H40.9599V0.230469H36.8672V25.0934H40.9599V17.5818H41.3046L49.144 25.0934H53.9431V24.5749L44.5681 15.7523L53.8046 7.77454Z"
                    fill="white"
                />
                <path
                    d="M61.6211 6.84229C56.2851 6.84229 52.6953 10.0196 52.6953 16.165C52.6953 22.3105 56.3035 25.5061 61.6564 25.5061C67.0093 25.5061 69.2358 22.278 69.7373 19.9469V19.4285H66.1461C65.8692 20.8624 64.5751 22.5535 61.6055 22.5535C58.6359 22.5535 56.6849 20.4131 56.6157 17.1497H70.1004V15.4572C70.1004 10.0874 66.9584 6.84229 61.6225 6.84229M56.6666 14.3355C56.8912 11.6937 58.5653 9.75961 61.5702 9.75961C64.5751 9.75961 66.2153 11.6583 66.2492 14.3355H56.6666Z"
                    fill="white"
                />
                <path
                    d="M87.8233 7.25781H83.7151L78.8284 20.3102H78.4837L73.597 7.25781H69.3672V7.77488L76.4804 25.1446L73.8046 31.4822V31.9993H77.9129L87.8233 7.77488V7.25781Z"
                    fill="white"
                />
                <path
                    d="M97.5168 14.8033L94.2194 14.2509C92.6654 13.9923 91.5776 13.44 91.5776 12.023C91.5776 10.606 92.89 9.70889 95.3073 9.70889C97.7245 9.70889 99.3986 10.5551 99.5723 12.7477H103.302V12.2292C102.905 9.0011 100.125 6.85938 95.2564 6.85938C90.388 6.85938 87.6417 8.99969 87.6417 12.177C87.6417 15.3542 89.9035 16.7359 93.2531 17.3052L96.5505 17.8576C98.4492 18.1684 99.5723 18.7039 99.5723 20.1364C99.5723 21.5689 98.2768 22.6228 95.7212 22.6228C93.1655 22.6228 91.2498 21.6381 91.0591 19.4286H87.3125V19.9471C87.6233 23.1413 90.5759 25.4893 95.7551 25.4893C100.934 25.4893 103.507 23.1243 103.507 19.9301C103.507 16.7359 101.073 15.4065 97.5154 14.8018"
                    fill="white"
                />
                <path
                    d="M110.952 21.8476V10.1416H115.995V7.25815H110.952V2.52686H106.86V7.25815H103.414V10.1416H106.86V20.4659C106.86 23.5047 108.691 25.0927 111.78 25.0927H115.89V22.1231H111.228L110.952 21.8462V21.8476Z"
                    fill="white"
                />
                <path
                    d="M125.248 6.84229C119.792 6.84229 115.977 10.0888 115.977 16.1664C115.977 22.2441 119.792 25.5075 125.248 25.5075C130.704 25.5075 134.503 22.261 134.503 16.1664C134.503 10.0718 130.688 6.84229 125.248 6.84229ZM125.248 22.4673C122.157 22.4673 120.12 20.2916 120.12 16.165C120.12 12.0384 122.157 9.87969 125.248 9.87969C128.34 9.87969 130.377 12.0553 130.377 16.165C130.377 20.2747 128.34 22.4673 125.248 22.4673Z"
                    fill="white"
                />
                <path
                    d="M145.559 6.87744C141.882 6.87744 140.431 8.60382 139.845 9.5885H139.498V7.25747H135.562V25.0934H139.654V15.1138C139.654 11.4886 141.882 9.96853 144.436 9.96853C146.715 9.96853 148.218 11.1595 148.218 13.7321V25.0934H152.292V13.3351C152.292 9.05308 149.547 6.87744 145.559 6.87744Z"
                    fill="white"
                />
                <path
                    d="M170.755 15.4587C170.755 10.0888 167.613 6.84375 162.277 6.84375C156.941 6.84375 153.352 10.021 153.352 16.1665C153.352 22.3119 156.96 25.5076 162.313 25.5076C167.666 25.5076 169.892 22.2794 170.394 19.9484V19.4299H166.802C166.525 20.8639 165.231 22.5549 162.262 22.5549C159.292 22.5549 157.341 20.4146 157.272 17.1512H170.757V15.4587H170.755ZM157.323 14.337C157.547 11.6951 159.222 9.76107 162.226 9.76107C165.231 9.76107 166.872 11.6598 166.905 14.337H157.323Z"
                    fill="white"
                />
            </g>
            <defs>
                <clipPath id="clip0_1756_33561">
                    <rect width="171" height="32" fill="white" />
                </clipPath>
            </defs>
        </svg>