<svg
            width="190"
            height="28"
            viewBox="0 0 190 28"
            fill="none"
            xmlns="http://www.w3.org/2000/svg"
        >
            <path
                d="M45.8707 25.0833V6.90146H49.2989V21.9611H56.4658L56.2209 25.0833H45.8707Z"
                fill="white"
            />
            <path
                d="M77.9256 25.0833H74.2525L72.5078 20.3083H65.6208L63.876 25.0833H60.3254L67.1512 6.90146H71.1304L77.9256 25.0833ZM71.5895 17.5534L69.753 12.6254C69.6102 12.2376 69.4877 11.8703 69.3857 11.5234C69.3041 11.1765 69.2224 10.8398 69.1408 10.5133H68.9878C68.9061 10.8398 68.8143 11.1765 68.7123 11.5234C68.6307 11.8703 68.5184 12.2376 68.3756 12.6254L66.4778 17.5534H71.5895Z"
                fill="white"
            />
            <path
                d="M94.7263 6.90146L88.0841 25.0833H84.0743L77.4322 6.90146H81.1359L85.4824 19.1145C85.6048 19.5022 85.717 19.8899 85.8191 20.2776C85.9211 20.6654 86.0129 21.0225 86.0946 21.349H86.217C86.2986 21.0225 86.3904 20.6654 86.4925 20.2776C86.5945 19.8899 86.7067 19.5022 86.8292 19.1145L91.2063 6.90146H94.7263Z"
                fill="white"
            />
            <path
                d="M110.097 6.90146L109.821 9.96237H101.71V14.4313H108.444V17.431H101.71V22.0224H110.25V25.0833H98.2817V6.90146H110.097Z"
                fill="white"
            />
            <path
                d="M130.982 6.90146V25.0833H127.983L120.3 14.3395C120.035 13.9926 119.79 13.6355 119.565 13.2682C119.341 12.9008 119.137 12.5539 118.953 12.2274H118.831V25.0833H115.525V6.90146H118.892L126.207 17.1249C126.473 17.4922 126.718 17.8595 126.942 18.2268C127.187 18.5737 127.391 18.9104 127.554 19.2369H127.677V6.90146H130.982Z"
                fill="white"
            />
            <path
                d="M152.869 15.9924C152.869 17.7881 152.461 19.3696 151.645 20.7368C150.828 22.104 149.665 23.1753 148.155 23.9507C146.645 24.7058 144.849 25.0833 142.768 25.0833H136.616V6.90146H142.768C144.849 6.90146 146.645 7.28917 148.155 8.0646C149.665 8.81963 150.828 9.88074 151.645 11.248C152.461 12.5948 152.869 14.1762 152.869 15.9924ZM149.288 15.9924C149.288 14.7068 149.023 13.6049 148.492 12.6866C147.961 11.7683 147.206 11.0643 146.227 10.5746C145.247 10.0848 144.094 9.83993 142.768 9.83993H140.044V22.1448H142.768C144.115 22.1448 145.268 21.8999 146.227 21.4102C147.206 20.9204 147.961 20.2164 148.492 19.2982C149.023 18.3595 149.288 17.2575 149.288 15.9924Z"
                fill="white"
            />
            <path
                d="M169.644 6.90146L169.368 9.96237H161.257V14.4313H167.991V17.431H161.257V22.0224H169.797V25.0833H157.829V6.90146H169.644Z"
                fill="white"
            />
            <path
                d="M188.144 12.8702C188.144 14.1354 187.787 15.2067 187.073 16.0842C186.379 16.9412 185.501 17.533 184.44 17.8595L189.338 25.0833H185.328L181.043 18.686H178.165V25.0833H174.737V6.90146H180.798C182.328 6.90146 183.645 7.13613 184.746 7.60547C185.848 8.0544 186.685 8.7278 187.256 9.62567C187.848 10.5031 188.144 11.5847 188.144 12.8702ZM184.655 12.8702C184.655 12.1356 184.481 11.5438 184.134 11.0949C183.808 10.6256 183.349 10.2889 182.757 10.0848C182.165 9.86034 181.471 9.7481 180.675 9.7481H178.165V15.9924H180.675C181.471 15.9924 182.165 15.8801 182.757 15.6557C183.349 15.4312 183.808 15.0945 184.134 14.6456C184.481 14.1762 184.655 13.5844 184.655 12.8702Z"
                fill="white"
            />
            <path
                d="M14.4313 26.3763C11.7913 25.0788 10.0614 21.2425 9.91771 17.4635C9.77399 13.6844 10.6632 11.1593 13.433 9.28745C14.2642 8.72571 14.7592 7.57525 16.354 8.02728C17.9488 8.47932 19.8851 10.469 20.7095 13.751C21.5338 17.0329 20.8645 20.2499 19.9648 22.3461C19.0651 24.4424 17.0714 27.6738 14.4313 26.3763Z"
                fill="white"
            />
            <path
                d="M9.21651 21.3728C8.42972 18.8687 8.39877 15.8509 8.78838 14.5961C8.84352 14.4506 8.78838 14.3096 8.62296 14.2805C8.29154 14.1906 7.75426 14.0743 6.87059 13.9807C5.53944 13.8397 2.51875 13.4373 1.08669 15.1221C-0.345361 16.807 0.152122 18.3354 2.41004 22.5347C4.66797 26.734 6.29659 27.943 8.10715 27.9988C9.32005 28.0362 10.636 27.156 11.3725 26.5708C11.7231 26.2923 11.7746 25.7971 11.528 25.4234C10.8318 24.3682 9.50571 22.2933 9.21651 21.3728Z"
                fill="white"
            />
            <path
                d="M0.034085 9.91564C0.181972 11.5679 0.757781 12.9121 0.96584 13.3531C1.0055 13.4371 1.10843 13.4672 1.19105 13.4247C1.59143 13.2186 2.77672 12.6908 4.52528 12.6232C6.70481 12.539 8.014 13.2494 8.87649 13.1794C9.14276 13.1578 9.25429 12.3295 9.13027 11.9023C9.00625 11.4751 7.54613 9.52064 6.20064 8.30923C4.65549 6.91804 3.04992 5.32676 1.67916 5.49828C0.308405 5.6698 -0.147386 7.88811 0.034085 9.91564Z"
                fill="white"
            />
            <path
                d="M15.8292 6.62562C14.7032 6.68042 13.9863 6.97686 13.5156 7.44655C13.4185 7.54342 13.2169 7.4566 13.2376 7.32103C13.5347 5.37351 13.998 2.9514 15.4796 2.28948C17.5391 1.3693 18.4142 1.73743 20.4882 0.950897C22.4943 0.190093 23.335 1.677 23.1038 4.21318C22.9277 6.14434 21.7128 8.8567 20.9029 10.4398C20.8545 10.5344 20.7189 10.5308 20.6705 10.4362C19.5365 8.22192 17.2614 6.55591 15.8292 6.62562Z"
                fill="white"
            />
            <path
                d="M21.2515 27.662C20.7354 27.7095 19.7085 27.4002 19.2657 26.8572C19.0394 26.5796 19.0881 26.1856 19.2401 25.8612C19.7334 24.8088 20.8817 23.635 21.2973 22.5933C22.1349 20.4935 22.4178 18.6456 22.2899 17.4635C22.1091 15.7927 23.1959 14.8832 25.5266 13.8904C28.6966 12.5401 30.8434 15.5971 30.3753 17.3145C29.8481 19.2484 29.7958 21.424 27.7097 23.9138C26.0838 25.8544 22.7697 27.5222 21.2515 27.662Z"
                fill="white"
            />
            <path
                d="M28.2505 8.91572C30.8513 8.96353 32.4075 10.2609 30.0389 13.2228C29.9741 13.3039 29.8548 13.319 29.771 13.2578C29.0018 12.6962 27.7232 11.9881 25.9694 12.4299C24.7174 12.7452 23.2212 13.6069 22.2899 14.6352C22.2425 14.6876 22.1527 14.6611 22.1432 14.591C22.089 14.1937 21.9388 13.2371 21.6657 12.5171C21.5978 12.3381 21.5926 12.1367 21.6807 11.9666C23.3207 8.80014 26.6558 8.88641 28.2505 8.91572Z"
                fill="white"
            />
            <path
                d="M31.3061 2.49289C31.6058 4.83332 29.9207 6.34843 28.5766 6.7893C27.2324 7.23018 25.243 6.97616 25.1457 5.95911C25.0483 4.94206 27.048 2.82427 27.8565 0.955108C28.665 -0.914049 31.0064 0.15245 31.3061 2.49289Z"
                fill="white"
            />
        </svg>