<svg
            width="175"
            height="32"
            viewBox="0 0 175 32"
            fill="none"
            xmlns="http://www.w3.org/2000/svg"
        >
            <g clip-path="url(#clip0_359_542)">
                <path
                    d="M161.609 22.6796H159.615L154.387 9.20706H157.944L160.854 17.2097L163.737 9.20706H165.731L168.749 17.1558L171.498 9.20706H175L169.881 22.6796H167.887L164.734 14.3805L161.609 22.6796Z"
                    fill="white"
                />
                <path
                    d="M144.642 19.4463C145.253 20.075 146.205 20.3893 147.498 20.3893C148.791 20.3893 149.743 20.075 150.354 19.4463C150.983 18.8175 151.297 17.6769 151.297 16.0243C151.297 14.3177 150.983 13.1411 150.354 12.4945C149.743 11.8298 148.791 11.4975 147.498 11.4975C146.205 11.4975 145.253 11.8208 144.642 12.4675C144.031 13.1142 143.726 14.2998 143.726 16.0243C143.726 17.6769 144.031 18.8175 144.642 19.4463ZM147.498 8.80299C149.941 8.80299 151.746 9.34189 152.914 10.4197C154.1 11.4975 154.692 13.3657 154.692 16.0243C154.692 18.611 154.1 20.4342 152.914 21.4941C151.746 22.5539 149.941 23.0838 147.498 23.0838C145.073 23.0838 143.268 22.5539 142.082 21.4941C140.914 20.4342 140.331 18.611 140.331 16.0243C140.331 13.3657 140.914 11.4975 142.082 10.4197C143.268 9.34189 145.073 8.80299 147.498 8.80299Z"
                    fill="white"
                />
                <path
                    d="M133.618 6.78185H130.923C130.223 6.78185 129.711 6.9525 129.387 7.29381C129.082 7.63511 128.929 8.16503 128.929 8.88356V9.2069H133.618V11.9014H128.929V22.6794H125.534V11.9014H123.271V9.2069H125.534V8.88356C125.534 7.41057 125.938 6.24295 126.747 5.38071C127.555 4.51847 128.857 4.08735 130.654 4.08735H133.618V6.78185ZM138.549 4.08735V22.6794H135.154V4.08735H138.549Z"
                    fill="white"
                />
                <path
                    d="M122.413 14.9734V16.6979H111.878V16.7248C111.896 18.09 112.219 19.0421 112.848 19.581C113.476 20.1199 114.411 20.3893 115.65 20.3893C117.698 20.3893 118.821 19.6708 119.018 18.2337H122.413C122.234 19.9941 121.578 21.2426 120.446 21.9791C119.333 22.7156 117.725 23.0838 115.623 23.0838C113.198 23.0838 111.402 22.5539 110.234 21.4941C109.066 20.4342 108.483 18.611 108.483 16.0243C108.483 13.3657 109.058 11.4975 110.207 10.4197C111.375 9.34189 113.171 8.80299 115.596 8.80299C120.141 8.80299 122.413 10.8598 122.413 14.9734ZM111.878 14.9195V15.0273H118.991C118.991 13.7339 118.695 12.8268 118.102 12.3058C117.527 11.7669 116.683 11.4975 115.569 11.4975C114.438 11.4975 113.557 11.749 112.929 12.2519C112.3 12.737 111.95 13.6261 111.878 14.9195Z"
                    fill="white"
                />
                <path
                    d="M103.351 21.3055V19.3924H102.974C102.291 21.3145 100.764 22.2755 98.3932 22.2755C96.4352 22.2755 94.9892 21.7995 94.0551 20.8474C93.121 19.8774 92.6539 18.117 92.6539 15.5662C92.6539 13.0154 93.121 11.255 94.0551 10.285C94.9892 9.29698 96.4352 8.80299 98.3932 8.80299C100.764 8.80299 102.291 9.77301 102.974 11.713H103.351V9.20717H106.746V21.3055C106.746 23.7305 106.153 25.437 104.968 26.425C103.8 27.431 102.004 27.9339 99.5788 27.9339C97.4951 27.9339 95.8784 27.5747 94.7287 26.8561C93.597 26.1376 92.9503 24.9251 92.7887 23.2186H96.1838C96.3813 24.5658 97.513 25.2394 99.5788 25.2394C100.872 25.2394 101.824 24.952 102.435 24.3772C103.046 23.8203 103.351 22.7964 103.351 21.3055ZM99.8752 19.581C102.192 19.581 103.351 18.593 103.351 16.617V14.4614C103.351 12.4855 102.192 11.4975 99.8752 11.4975C98.4022 11.4975 97.3873 11.758 96.8304 12.2789C96.2915 12.7819 96.0221 13.8776 96.0221 15.5662C96.0221 17.2188 96.2915 18.3056 96.8304 18.8265C97.3693 19.3295 98.3843 19.581 99.8752 19.581Z"
                    fill="white"
                />
                <path
                    d="M90.8385 9.20706H91.9702V12.2788L90.1379 12.2518C88.5571 12.1979 87.4524 12.4674 86.8237 13.0602C86.195 13.653 85.8716 14.5871 85.8537 15.8625V22.6796H82.4586V9.20706H85.8537V12.7099H86.2039C86.5632 11.4884 87.0662 10.5992 87.7129 10.0423C88.3775 9.48549 89.4194 9.20706 90.8385 9.20706Z"
                    fill="white"
                />
                <path
                    d="M72.1331 23.0838C70.6422 23.0838 69.4656 22.7246 68.6033 22.006C67.7411 21.2875 67.31 20.2277 67.31 18.8265C67.31 17.623 67.7231 16.635 68.5494 15.8626C69.3757 15.0902 70.7589 14.7039 72.699 14.7039C73.7947 14.7039 75.3306 14.7578 77.3065 14.8656V13.7878C77.3065 12.9795 77.064 12.3957 76.579 12.0364C76.112 11.6771 75.3306 11.4975 74.2348 11.4975C73.2289 11.4975 72.4834 11.6502 71.9984 11.9556C71.5134 12.2609 71.208 12.8358 71.0823 13.68H67.7411C67.9027 11.8837 68.5045 10.6263 69.5464 9.90773C70.6062 9.17124 72.187 8.80299 74.2887 8.80299C78.564 8.80299 80.7016 10.4556 80.7016 13.7609V22.6797H77.3065V20.2816H76.9563C76.6329 21.1977 76.0401 21.8983 75.1779 22.3833C74.3336 22.8503 73.3187 23.0838 72.1331 23.0838ZM73.6151 20.4971C76.0761 20.4971 77.3065 19.563 77.3065 17.6948V16.8326C76.1749 16.7607 75.0881 16.7248 74.0462 16.7248C72.7349 16.7248 71.8637 16.8955 71.4325 17.2368C71.0014 17.5601 70.7859 18.0182 70.7859 18.611C70.7859 19.2936 71.0104 19.7786 71.4595 20.066C71.9265 20.3534 72.6451 20.4971 73.6151 20.4971Z"
                    fill="white"
                />
                <path
                    d="M62.3781 22.6794V13.7337C62.3781 12.8714 62.1266 12.2876 61.6236 11.9822C61.1206 11.6589 60.3302 11.4972 59.2524 11.4972C57.1687 11.4972 56.0999 12.3235 56.046 13.9762V22.6794H52.6509V4.08735H56.046V11.7128H56.3963C56.9891 9.77275 58.4351 8.80273 60.7344 8.80273C62.387 8.80273 63.6355 9.14403 64.4798 9.82664C65.342 10.5092 65.7731 11.7038 65.7731 13.4103V22.6794H62.3781Z"
                    fill="white"
                />
                <path
                    d="M47.962 17.7218H51.3571C51.1595 19.6618 50.4948 21.045 49.3631 21.8713C48.2494 22.6797 46.6507 23.0838 44.5669 23.0838C42.1419 23.0838 40.3455 22.5539 39.1779 21.4941C38.0103 20.4342 37.4265 18.611 37.4265 16.0243C37.4265 13.3657 38.0103 11.4975 39.1779 10.4197C40.3455 9.34189 42.1419 8.80299 44.5669 8.80299C46.6327 8.80299 48.2225 9.19818 49.3362 9.98857C50.4499 10.779 51.1056 12.1262 51.3032 14.0303H47.9081C47.6386 12.3418 46.5249 11.4975 44.5669 11.4975C43.2915 11.4975 42.3484 11.8208 41.7377 12.4675C41.1269 13.1142 40.8216 14.2998 40.8216 16.0243C40.8216 17.6769 41.1269 18.8175 41.7377 19.4463C42.3484 20.075 43.2915 20.3893 44.5669 20.3893C45.5549 20.3893 46.3363 20.1917 46.9111 19.7965C47.486 19.3834 47.8362 18.6918 47.962 17.7218Z"
                    fill="white"
                />
                <path
                    fill-rule="evenodd"
                    clip-rule="evenodd"
                    d="M21.4591 28.5843L17.2142 22.6857C17.2142 22.6857 25.3519 16.0387 28.1001 9.88651C28.0806 9.86577 18.5709 14.7053 18.5709 14.7053L14.6909 9.31407C21.7873 4.44805 25.9294 5.19797 27.0363 6.73638L31.6113 13.0935C33.3067 15.4494 27.3014 24.0525 21.4591 28.5843ZM10.446 3.41553L14.6909 9.31407C14.6909 9.31407 6.55321 15.9611 3.80497 22.1133C3.82455 22.134 13.3342 17.2945 13.3342 17.2945L17.2142 22.6857C10.1178 27.5517 5.97566 26.8018 4.86882 25.2634L0.293349 18.9062C-1.40203 16.5504 4.60417 7.94734 10.446 3.41553Z"
                    fill="white"
                />
            </g>
            <defs>
                <clipPath id="clip0_359_542">
                    <rect width="175" height="32" fill="white" />
                </clipPath>
            </defs>
        </svg>