<svg
            width="131"
            height="32"
            viewBox="0 0 131 32"
            fill="none"
            xmlns="http://www.w3.org/2000/svg"
        >
            <path
                fill-rule="evenodd"
                clip-rule="evenodd"
                d="M1 0.438965H23.9111V17.1129H38.5897V20.8262H23.9111V25.5551H20.1978V20.8262H1V0.438965ZM20.1978 17.1129V4.15224H4.71327V17.1129H20.1978Z"
                fill="white"
            />
            <path
                d="M24.1575 30.0384C24.1575 31.1217 23.2792 32 22.1957 32C21.1122 32 20.2339 31.1217 20.2339 30.0384C20.2339 28.955 21.1122 28.0767 22.1957 28.0767C23.2792 28.0767 24.1575 28.955 24.1575 30.0384Z"
                fill="white"
            />
            <path
                d="M52.5802 22.2797C51.5992 22.2797 50.7237 22.0292 49.9537 21.5281C49.1889 21.0218 48.5876 20.3019 48.1499 19.3683C47.7174 18.4295 47.5011 17.3035 47.5011 15.9902C47.5011 14.6769 47.72 13.5535 48.1578 12.62C48.6008 11.6864 49.2074 10.9718 49.9774 10.476C50.7474 9.98022 51.6203 9.73234 52.596 9.73234C53.3503 9.73234 53.9568 9.85892 54.4156 10.1121C54.8798 10.36 55.2384 10.6501 55.4916 10.9823C55.75 11.3146 55.9505 11.6073 56.0929 11.8605H56.2353V5.83996H58.6007V22.0424H56.2906V20.1516H56.0929C55.9505 20.41 55.7448 20.7054 55.4758 21.0376C55.2121 21.3699 54.8481 21.66 54.384 21.9079C53.9199 22.1558 53.3186 22.2797 52.5802 22.2797ZM53.1024 20.2623C53.7827 20.2623 54.3576 20.083 54.827 19.7243C55.3017 19.3604 55.6604 18.8567 55.903 18.2133C56.1509 17.5698 56.2748 16.8209 56.2748 15.9665C56.2748 15.1226 56.1535 14.3842 55.9109 13.7513C55.6683 13.1184 55.3123 12.6252 54.8429 12.2719C54.3735 11.9185 53.7933 11.7418 53.1024 11.7418C52.3903 11.7418 51.797 11.9264 51.3223 12.2956C50.8476 12.6648 50.489 13.1685 50.2464 13.8067C50.009 14.4449 49.8904 15.1648 49.8904 15.9665C49.8904 16.7787 50.0117 17.5092 50.2543 18.1579C50.4969 18.8066 50.8555 19.3209 51.3302 19.7006C51.8102 20.0751 52.4009 20.2623 53.1024 20.2623Z"
                fill="white"
            />
            <path
                d="M66.5459 22.2876C65.3486 22.2876 64.3175 22.0318 63.4525 21.5202C62.5928 21.0033 61.9283 20.2781 61.4589 19.3446C60.9947 18.4058 60.7627 17.3061 60.7627 16.0456C60.7627 14.8009 60.9947 13.7038 61.4589 12.7545C61.9283 11.8051 62.5823 11.0641 63.4209 10.5314C64.2648 9.99868 65.251 9.73234 66.3797 9.73234C67.0654 9.73234 67.7299 9.84573 68.3734 10.0725C69.0168 10.2993 69.5944 10.6553 70.106 11.1406C70.6176 11.6258 71.021 12.2561 71.3164 13.0314C71.6118 13.8014 71.7594 14.7376 71.7594 15.8399V16.6785H62.0997V14.9063H69.4414C69.4414 14.284 69.3148 13.7328 69.0617 13.2529C68.8085 12.7677 68.4525 12.3853 67.9936 12.1057C67.5401 11.8262 67.0074 11.6864 66.3955 11.6864C65.731 11.6864 65.1508 11.8499 64.6551 12.1769C64.1646 12.4987 63.7848 12.9206 63.5158 13.4428C63.2521 13.9596 63.1203 14.5213 63.1203 15.1279V16.5123C63.1203 17.3246 63.2627 18.0155 63.5475 18.5851C63.8375 19.1547 64.241 19.5899 64.7579 19.8905C65.2748 20.1858 65.8787 20.3335 66.5696 20.3335C67.0179 20.3335 67.4267 20.2702 67.7959 20.1437C68.165 20.0118 68.4841 19.8166 68.7531 19.5582C69.0221 19.2998 69.2278 18.9807 69.3702 18.6009L71.6091 19.0044C71.4298 19.6637 71.1081 20.2412 70.6439 20.737C70.1851 21.2275 69.6076 21.6099 68.9114 21.8841C68.2204 22.1531 67.4319 22.2876 66.5459 22.2876Z"
                fill="white"
            />
            <path
                d="M78.953 22.2876C77.7557 22.2876 76.7246 22.0318 75.8596 21.5202C74.9999 21.0033 74.3354 20.2781 73.866 19.3446C73.4018 18.4058 73.1698 17.3061 73.1698 16.0456C73.1698 14.8009 73.4018 13.7038 73.866 12.7545C74.3354 11.8051 74.9894 11.0641 75.828 10.5314C76.6719 9.99868 77.6581 9.73234 78.7868 9.73234C79.4725 9.73234 80.137 9.84573 80.7805 10.0725C81.4239 10.2993 82.0015 10.6553 82.5131 11.1406C83.0247 11.6258 83.4281 12.2561 83.7235 13.0314C84.0189 13.8014 84.1665 14.7376 84.1665 15.8399V16.6785H74.5068V14.9063H81.8485C81.8485 14.284 81.7219 13.7328 81.4688 13.2529C81.2156 12.7677 80.8596 12.3853 80.4007 12.1057C79.9472 11.8262 79.4145 11.6864 78.8027 11.6864C78.1381 11.6864 77.5579 11.8499 77.0622 12.1769C76.5717 12.4987 76.1919 12.9206 75.9229 13.4428C75.6592 13.9596 75.5274 14.5213 75.5274 15.1279V16.5123C75.5274 17.3246 75.6698 18.0155 75.9546 18.5851C76.2447 19.1547 76.6481 19.5899 77.165 19.8905C77.6819 20.1858 78.2858 20.3335 78.9767 20.3335C79.425 20.3335 79.8338 20.2702 80.203 20.1437C80.5722 20.0118 80.8913 19.8166 81.1602 19.5582C81.4292 19.2998 81.6349 18.9807 81.7773 18.6009L84.0162 19.0044C83.8369 19.6637 83.5152 20.2412 83.051 20.737C82.5922 21.2275 82.0147 21.6099 81.3185 21.8841C80.6275 22.1531 79.839 22.2876 78.953 22.2876Z"
                fill="white"
            />
            <path
                d="M86.1228 26.5993V9.89056H88.4329V11.8605H88.6307C88.7678 11.6073 88.9656 11.3146 89.224 10.9823C89.4825 10.6501 89.8411 10.36 90.3 10.1121C90.7588 9.85892 91.3654 9.73234 92.1196 9.73234C93.1006 9.73234 93.9761 9.98022 94.7461 10.476C95.5162 10.9718 96.1201 11.6864 96.5578 12.62C97.0009 13.5535 97.2224 14.6769 97.2224 15.9902C97.2224 17.3035 97.0035 18.4295 96.5657 19.3683C96.128 20.3019 95.5267 21.0218 94.762 21.5281C93.9972 22.0292 93.1243 22.2797 92.1433 22.2797C91.4049 22.2797 90.801 22.1558 90.3316 21.9079C89.8675 21.66 89.5035 21.3699 89.2398 21.0376C88.9761 20.7054 88.7731 20.41 88.6307 20.1516H88.4883V26.5993H86.1228ZM88.4408 15.9665C88.4408 16.8209 88.5647 17.5698 88.8126 18.2133C89.0605 18.8567 89.4192 19.3604 89.8886 19.7243C90.358 20.083 90.9329 20.2623 91.6132 20.2623C92.32 20.2623 92.9107 20.0751 93.3854 19.7006C93.8601 19.3209 94.2187 18.8066 94.4613 18.1579C94.7092 17.5092 94.8332 16.7787 94.8332 15.9665C94.8332 15.1648 94.7118 14.4449 94.4692 13.8067C94.2319 13.1685 93.8732 12.6648 93.3933 12.2956C92.9186 11.9264 92.3253 11.7418 91.6132 11.7418C90.9276 11.7418 90.3474 11.9185 89.8727 12.2719C89.4033 12.6252 89.0473 13.1184 88.8047 13.7513C88.5621 14.3842 88.4408 15.1226 88.4408 15.9665Z"
                fill="white"
            />
            <path
                d="M108.31 12.8573L106.166 13.2371C106.077 12.9628 105.934 12.7017 105.739 12.4538C105.549 12.2059 105.291 12.0029 104.964 11.8447C104.637 11.6864 104.228 11.6073 103.738 11.6073C103.068 11.6073 102.509 11.7576 102.06 12.0583C101.612 12.3536 101.388 12.736 101.388 13.2054C101.388 13.6115 101.538 13.9385 101.839 14.1864C102.139 14.4343 102.625 14.6374 103.294 14.7956L105.225 15.2386C106.343 15.4971 107.176 15.8953 107.725 16.4332C108.273 16.9712 108.548 17.67 108.548 18.5297C108.548 19.2576 108.337 19.9063 107.915 20.4759C107.498 21.0403 106.915 21.4833 106.166 21.805C105.423 22.1268 104.56 22.2876 103.579 22.2876C102.219 22.2876 101.108 21.9975 100.249 21.4174C99.3889 20.8319 98.8615 20.0012 98.6664 18.9253L100.953 18.5772C101.095 19.1732 101.388 19.6241 101.831 19.93C102.274 20.2307 102.851 20.381 103.563 20.381C104.339 20.381 104.958 20.2201 105.423 19.8984C105.887 19.5714 106.119 19.1732 106.119 18.7038C106.119 18.324 105.976 18.005 105.692 17.7465C105.412 17.4881 104.982 17.2929 104.402 17.1611L102.345 16.7101C101.211 16.4517 100.373 16.0403 99.8293 15.476C99.2914 14.9116 99.0224 14.197 99.0224 13.332C99.0224 12.6147 99.2228 11.9871 99.6236 11.4491C100.024 10.9111 100.578 10.4918 101.285 10.1912C101.992 9.88529 102.801 9.73234 103.714 9.73234C105.027 9.73234 106.061 10.0171 106.815 10.5868C107.569 11.1511 108.068 11.908 108.31 12.8573Z"
                fill="white"
            />
            <path
                d="M115.717 22.2876C114.52 22.2876 113.489 22.0318 112.624 21.5202C111.764 21.0033 111.1 20.2781 110.63 19.3446C110.166 18.4058 109.934 17.3061 109.934 16.0456C109.934 14.8009 110.166 13.7038 110.63 12.7545C111.1 11.8051 111.754 11.0641 112.592 10.5314C113.436 9.99868 114.423 9.73234 115.551 9.73234C116.237 9.73234 116.901 9.84573 117.545 10.0725C118.188 10.2993 118.766 10.6553 119.278 11.1406C119.789 11.6258 120.193 12.2561 120.488 13.0314C120.783 13.8014 120.931 14.7376 120.931 15.8399V16.6785H111.271V14.9063H118.613C118.613 14.284 118.486 13.7328 118.233 13.2529C117.98 12.7677 117.624 12.3853 117.165 12.1057C116.712 11.8262 116.179 11.6864 115.567 11.6864C114.903 11.6864 114.322 11.8499 113.827 12.1769C113.336 12.4987 112.956 12.9206 112.687 13.4428C112.424 13.9596 112.292 14.5213 112.292 15.1279V16.5123C112.292 17.3246 112.434 18.0155 112.719 18.5851C113.009 19.1547 113.413 19.5899 113.929 19.8905C114.446 20.1858 115.05 20.3335 115.741 20.3335C116.189 20.3335 116.598 20.2702 116.967 20.1437C117.337 20.0118 117.656 19.8166 117.925 19.5582C118.194 19.2998 118.399 18.9807 118.542 18.6009L120.781 19.0044C120.601 19.6637 120.28 20.2412 119.815 20.737C119.357 21.2275 118.779 21.6099 118.083 21.8841C117.392 22.1531 116.603 22.2876 115.717 22.2876Z"
                fill="white"
            />
            <path
                d="M128.56 9.89056V11.7893H121.922V9.89056H128.56ZM123.702 6.97919H126.068V18.4744C126.068 18.9332 126.136 19.2787 126.273 19.5107C126.41 19.7375 126.587 19.8931 126.803 19.9775C127.025 20.0566 127.265 20.0962 127.523 20.0962C127.713 20.0962 127.879 20.083 128.022 20.0566C128.164 20.0303 128.275 20.0092 128.354 19.9933L128.781 21.9474C128.644 22.0002 128.449 22.0529 128.196 22.1057C127.943 22.1637 127.626 22.1953 127.246 22.2006C126.624 22.2111 126.044 22.1004 125.506 21.8683C124.968 21.6363 124.533 21.2776 124.201 20.7924C123.868 20.3072 123.702 19.698 123.702 18.9649V6.97919Z"
                fill="white"
            />
        </svg>