<svg
            width="140"
            height="32"
            viewBox="0 0 140 32"
            fill="none"
            xmlns="http://www.w3.org/2000/svg"
        >
            <g clip-path="url(#clip0_402_23341)">
                <path
                    d="M59.752 18.1424C59.752 9.96283 66.1373 3.02148 74.7369 3.02148C81.7973 3.02148 86.7553 7.63654 86.7553 14.8405C86.7553 23.0576 80.3701 30.0364 71.7328 30.0364C64.7476 30.0364 59.752 25.3838 59.752 18.1424ZM72.1078 25.3088C77.7786 25.3088 81.4973 20.3186 81.4973 15.1032C81.4973 10.6381 78.7182 7.74909 74.3994 7.74909C68.6537 7.74909 65.0101 12.8518 65.0101 17.9172C65.0101 22.4196 67.8643 25.3088 72.1078 25.3088Z"
                    fill="white"
                />
                <path
                    d="M85.9863 25.2127H92.7616C94.5224 25.2127 95.5951 24.4023 95.5951 22.8977C95.5951 22.2036 95.3662 21.6633 94.9443 21.0461L90.5807 15.0259C89.3936 13.3655 88.7824 11.9005 88.7824 10.0094C88.7824 5.76392 91.9214 3.0249 96.6676 3.0249H103.634L102.715 7.84818H96.7822C95.0211 7.84818 94.1023 8.96818 94.1023 10.319C94.1023 11.0524 94.3312 11.6697 94.8299 12.3262L99.2704 18.5791C100.495 20.3163 100.954 21.5901 100.954 23.2109C100.954 27.8036 97.8153 30.0416 92.7241 30.0416H85.0693L85.9882 25.2184V25.2127H85.9863Z"
                    fill="white"
                />
                <path
                    d="M121.428 25.2127H128.203C129.964 25.2127 131.037 24.4023 131.037 22.8977C131.037 22.2036 130.808 21.6633 130.386 21.0461L126.022 15.0259C124.835 13.3655 124.224 11.9005 124.224 10.0094C124.224 5.76392 127.363 3.0249 132.109 3.0249H139.076L138.157 7.84818H132.224C130.463 7.84818 129.544 8.96818 129.544 10.319C129.544 11.0524 129.773 11.6697 130.271 12.3262L134.712 18.5791C135.936 20.3163 136.396 21.5901 136.396 23.2109C136.396 27.8036 133.257 30.0416 128.165 30.0416H120.511L121.43 25.2184V25.2127H121.428Z"
                    fill="white"
                />
                <path
                    d="M109.017 19.4236L105.319 3.02148H110.287L112.453 14.1746L118.617 3.02148H123.884L114.135 19.6544L112.117 30.0364H106.962L109.017 19.4236Z"
                    fill="white"
                />
                <path
                    d="M54.6362 3.02148L51.3114 19.1421C50.6194 22.4966 47.7447 24.9317 44.4742 24.9317H39.4824V30.0364H44.4742C50.1299 30.0364 55.0899 25.8923 56.2675 20.1816L59.8079 3.02148H54.6362Z"
                    fill="white"
                />
                <path
                    d="M4.56654 27.4875C4.56654 27.4875 0.020887 23.2707 1.19321 15.9335C2.3609 8.59882 7.35835 4.26955 10.0899 2.42725C10.3285 2.79663 10.565 3.16372 10.7965 3.53308C10.7873 3.53308 7.49505 8.25926 10.0204 14.8255C11.772 18.7556 14.3275 20.1114 17.2652 21.2424C17.2189 21.2424 12.518 28.5038 4.56424 27.4851L4.56654 27.4875Z"
                    fill="white"
                />
                <path
                    d="M14.7362 0.592768C14.8381 0.554368 20.8999 -1.43357 27.177 2.09275C33.5143 5.65521 34.1573 11.723 33.9423 14.89C33.4888 14.9285 33.0353 14.9668 32.5795 15.0053C32.584 15.0053 32.2624 14.5895 31.5892 13.9797C26.7814 9.61524 19.4724 9.25154 14.1439 12.9971C13.746 13.2771 13.3526 13.5639 12.957 13.8554C12.8991 13.8554 9.73859 6.86603 14.7339 0.590506L14.7362 0.592768Z"
                    fill="white"
                />
                <path
                    d="M32.6385 20.0636C32.6269 20.0636 30.4224 26.2935 23.8952 29.9064C17.3727 33.5195 11.2766 31.6409 8.35449 30.2537C8.56422 29.8516 8.77862 29.4517 8.99533 29.0495C9.0769 29.0495 14.2991 30.4435 19.407 23.1261C22.1894 19.1703 22.3339 16.0119 22.2593 12.7988C22.2665 12.7988 28.9357 13.2307 32.6408 20.0661C32.6408 20.0661 32.6408 20.0661 32.6385 20.0661V20.0636Z"
                    fill="white"
                />
            </g>
            <defs>
                <clipPath id="clip0_402_23341">
                    <rect width="137.987" height="32" fill="white" transform="translate(1)" />
                </clipPath>
            </defs>
        </svg>