<svg width="120" height="13" viewBox="0 0 120 13" fill="none" xmlns="http://www.w3.org/2000/svg">
<path d="M55.9457 12.631C48.7322 12.631 46.5308 10.7921 46.5308 8.4132V0H51.2567V7.94903C51.2567 9.88607 53.3612 10.4261 56.1672 10.4261C57.6385 10.4441 59.1098 10.386 60.5747 10.2521V0H65.3052V12.0909C62.2018 12.4779 59.0746 12.6583 55.9457 12.631Z" fill="white"/>
<path d="M14.0439 11.841V6.94034H4.73054V11.841H0V0H4.73054V4.84261H14.0439V0H18.7745V11.841H14.0439Z" fill="white"/>
<path d="M75.3757 2.35213H88.1505V0H74.3927C70.6683 0 69.3853 0.611464 69.3853 2.41015V11.841H74.1158V6.87339H88.1505V4.76228H74.1158V3.07517C74.1158 2.65116 74.3742 2.35213 75.3757 2.35213Z" fill="white"/>
<path d="M97.4351 2.36998C96.4336 2.36998 96.1521 2.66902 96.1521 3.09302V4.81583H110.201V6.85553H96.1521V8.74795C96.1521 9.17196 96.4151 9.47099 97.4351 9.47099H110.201V11.841H96.4567C92.7276 11.841 91.4492 11.2295 91.4492 9.43082V2.41015C91.4492 0.624853 92.7276 0 96.4567 0H110.201V2.36998H97.4351Z" fill="white"/>
<path d="M115.098 10.319C115.098 9.70304 115.485 9.47095 116.588 9.47095H118.504C119.625 9.47095 119.994 9.68518 119.994 10.319V11.7829C119.994 12.3988 119.607 12.6309 118.504 12.6309H116.588C115.462 12.6309 115.098 12.4167 115.098 11.7829V10.319Z" fill="white"/>
<path d="M32.4448 10.6002C31.1339 10.6175 29.824 10.5204 28.5311 10.3101C27.8527 10.2119 27.5712 9.96195 27.5712 9.41743V7.9892C27.5712 7.42683 27.8712 7.19474 28.5311 7.09655C29.824 6.88622 31.1339 6.78912 32.4448 6.80644H36.8753V10.444C35.9985 10.5422 34.2309 10.6002 32.4448 10.6002ZM32.4448 4.73996C29.8847 4.71869 27.3274 4.91283 24.8021 5.32018C23.4175 5.52995 22.8545 6.01644 22.8545 7.13672V10.2297C22.8545 11.3545 23.436 11.8365 24.8021 12.0507C27.3302 12.4358 29.8855 12.6298 32.4448 12.631C35.5171 12.6673 38.5877 12.4733 41.629 12.0507V4.10172C41.629 0.232088 40.0875 0 34.8308 0H24.299V2.12896H34.7108C36.6769 2.12896 36.8384 2.65116 36.8384 3.78929V4.73996H32.4448Z" fill="white"/>
</svg>
