<svg
            width="328"
            height="60"
            viewBox="0 0 328 60"
            fill="none"
            xmlns="http://www.w3.org/2000/svg"
        >
            <path
                d="M313.354 47.9542C305.503 47.9542 300.322 42.4063 300.322 34.0323C300.322 25.6582 305.451 20.1104 313.302 20.1104C321.519 20.1104 326.543 26.2339 325.81 35.3931H305.608C306.027 40.7839 308.905 43.9241 313.406 43.9241C316.599 43.9241 319.216 42.354 320.158 39.7371H325.13C323.822 44.7616 319.32 47.9542 313.354 47.9542ZM305.713 31.8341H320.734C320.367 26.9666 317.698 24.1404 313.459 24.1404C309.167 24.1404 306.341 27.019 305.713 31.8341Z"
                fill="white"
            />
            <path
                d="M293.856 20.9478H299.195L289.303 47.1168H283.389L273.549 20.9478H278.835L286.372 41.7259L293.856 20.9478Z"
                fill="white"
            />
            <path
                d="M253.81 28.4321H248.785C249.675 23.1983 253.914 20.1104 260.195 20.1104C266.789 20.1104 270.924 23.5647 270.924 29.2172V42.4587C270.924 44.2382 271.081 45.442 271.448 47.1168H266.423C266.161 46.0177 266.004 44.8662 265.952 43.5578C263.911 46.3317 260.509 47.9542 256.531 47.9542C251.245 47.9542 247.948 45.0756 247.948 40.4175C247.948 35.9688 250.879 33.0902 256.688 32.1481L261.137 31.4154C264.434 30.8396 265.847 29.7405 265.847 27.804C265.847 25.4488 263.701 23.931 260.247 23.931C256.636 23.931 254.176 25.6582 253.81 28.4321ZM265.9 36.0734V32.6715C264.748 33.7182 263.283 34.3986 261.242 34.765L257.526 35.3931C254.647 35.8641 253.077 37.4342 253.077 39.8941C253.077 42.5634 254.856 44.1335 258.049 44.1335C262.602 44.1335 265.9 40.7839 265.9 36.0734Z"
                fill="white"
            />
            <path
                d="M223.775 20.9478H229.218L235.499 40.8362L241.047 20.9478H246.333L238.744 47.1168H232.83L226.497 27.7517L220.216 47.1168H214.25L206.713 20.9478H211.947L217.495 40.8362L223.775 20.9478Z"
                fill="white"
            />
            <path
                d="M192.131 13.8296H197.156V20.9476H203.436V24.8729H197.156V38.9518C197.156 41.9874 198.15 43.1912 200.767 43.1912H203.593V47.1166H199.616C194.33 47.1166 192.131 44.4473 192.131 38.6901V24.8729H188.206V20.9476H192.131V13.8296Z"
                fill="white"
            />
            <path
                d="M161.994 10.48H166.913V24.2449C168.955 21.5756 171.99 20.1102 175.602 20.1102C181.463 20.1102 184.97 24.0355 184.97 30.3684V47.1166H179.946V31.2582C179.946 26.7571 178.009 24.4019 174.031 24.4019C169.844 24.4019 167.018 27.0711 167.018 31.3105V47.1166H161.994V10.48Z"
                fill="white"
            />
            <path
                d="M135.934 49.2103C136.666 52.5599 139.388 54.3918 143.47 54.3918C148.495 54.3918 151.216 51.6702 151.216 46.6457V42.4063C149.123 45.599 145.983 47.2738 142.162 47.2738C135.201 47.2738 130.333 41.7783 130.333 33.6659C130.333 25.7105 135.253 20.1104 142.11 20.1104C145.93 20.1104 149.123 21.7852 151.216 24.9778V20.9478H156.241V46.07C156.241 53.8684 151.583 58.4218 143.47 58.4218C136.509 58.4218 132.008 55.0721 131.014 49.2103H135.934ZM143.47 42.9821C148.181 42.9821 151.269 39.1614 151.269 33.6659C151.269 28.2227 148.181 24.4021 143.47 24.4021C138.76 24.4021 135.567 28.2227 135.567 33.6659C135.567 39.1091 138.76 42.9821 143.47 42.9821Z"
                fill="white"
            />
            <path
                d="M122.355 16.6561C120.104 16.6561 118.953 15.086 118.953 13.3588C118.953 11.5793 120.104 10.0615 122.355 10.0615C124.5 10.0615 125.757 11.5793 125.757 13.3588C125.757 15.086 124.5 16.6561 122.355 16.6561ZM119.842 47.1168V20.9478H124.867V47.1168H119.842Z"
                fill="white"
            />
            <path
                d="M101.758 20.9478H106.678V25.3965C108.614 21.8898 111.859 20.1104 116.046 20.1104V24.9254C109.713 24.9254 106.782 27.5424 106.782 33.0902V47.1168H101.758V20.9478Z"
                fill="white"
            />
            <path
                d="M89.0581 27.3852C94.2919 28.0132 97.7462 31.8339 97.7462 37.12C97.7462 43.1389 93.1928 47.1166 86.3365 47.1166H70.1641V10.48H85.0281C91.2039 10.48 95.1293 13.882 95.1293 19.2728C95.1293 23.3551 92.8264 26.4431 89.0581 27.3852ZM84.1383 25.815C87.959 25.815 90.1048 23.8262 90.1048 20.2672C90.1048 16.8129 88.116 15.0334 84.1906 15.0334H75.3979V25.815H84.1383ZM75.3979 42.5632H85.7085C90.2619 42.5632 92.5124 40.522 92.5124 36.3873C92.5124 32.2526 90.1048 30.1067 85.3944 30.1067H75.3979V42.5632Z"
                fill="white"
            />
            <path
                d="M41.0999 30V42.3588L39.4525 44.0062L25.4463 30C25.4463 29.293 25.4463 28.8966 25.4463 28.1897L42.4893 11.1467L42.7545 10.8815C43.198 10.6977 43.5908 10.5348 44.0343 10.3511H52.4947C53.2016 11.058 53.5999 11.4554 54.3077 12.1623V26.3839C53.6026 27.089 53.208 27.4837 52.5029 28.1888H42.9102L41.0999 29.9991V30Z"
                fill="white"
            />
            <path
                d="M0 10.3512L1.61297 8.7256L10.3512 17.4639C11.3505 17.4639 11.9126 17.4639 12.9119 17.4639L22.358 8.01777L30.3758 0H32.9355L41.1017 8.16622V9.97651L40.727 10.3512L24.1692 26.9091L23.4197 27.6585L22.1398 28.1889H1.81301C1.10609 27.482 0.709636 27.0856 0.00271809 26.3786V26.3497"
                fill="white"
            />
            <path
                d="M0 31.8383V47.8368L1.62021 49.457L10.3512 40.726C11.3505 40.726 11.9126 40.726 12.9119 40.726L24.1456 51.9597L30.383 58.1962C31.3832 58.1962 31.9435 58.1962 32.9427 58.1962L41.1017 50.0372V48.2124L40.727 47.8377L24.1692 31.2799L23.4197 30.5304C22.9762 30.3467 22.5834 30.1837 22.1398 30H1.81301C1.10609 30.7069 0.709636 31.1034 0.00271809 31.8103V31.8393L0 31.8383Z"
                fill="white"
            />
            <path
                d="M44.7204 30H52.4974C53.2044 30.7069 53.6008 31.1034 54.3077 31.8103V46.0265C53.6008 46.7334 53.2044 47.1299 52.4974 47.8368H44.7204L42.9102 46.0265V31.8103L44.7204 30Z"
                fill="white"
            />
        </svg>